{"title":"Dead Before Dawn 2012 HDTV XViD-PSiG.avi","uid":7688874,"size":731893760,"categoryP":"video","categoryS":"movies","magnet":"?xt=urn:btih:6f8fcea2072ee0981c431572137f202122284358&amp;dn=Dead+Before+Dawn+2012+HDTV+XViD-PSiG.avi&amp;tr=udp%3A%2F%2Ftracker.openbittorrent.com%3A80&amp;tr=udp%3A%2F%2Fopen.demonii.com%3A1337&amp;tr=udp%3A%2F%2Ftracker.coppersurfer.tk%3A6969&amp;tr=udp%3A%2F%2Fexodus.desync.com%3A6969","seeders":0,"leechers":0,"uploader":"TorrentXXLS","files":-1,"time":1349037234,"description":"Dead Before Dawn 2012 HDTV XViD-PSiG\n\nScreenshots:\n &lt;a href=&quot;\nhttp://imageshack.us/a/img802/2919/vlcsnap2012093020h28m27.png&quot; rel=&quot;nofollow&quot; target=&quot;_NEW&quot;&gt;\nhttp://imageshack.us/a/img802/2919/vlcsnap2012093020h28m27.png&lt;/a&gt; &lt;a href=&quot;\nhttp://imageshack.us/a/img687/1606/vlcsnap2012093020h28m34.png&quot; rel=&quot;nofollow&quot; target=&quot;_NEW&quot;&gt;\nhttp://imageshack.us/a/img687/1606/vlcsnap2012093020h28m34.png&lt;/a&gt; &lt;a href=&quot;\nhttp://imageshack.us/a/img832/9391/vlcsnap2012093020h28m37.png&quot; rel=&quot;nofollow&quot; target=&quot;_NEW&quot;&gt;\nhttp://imageshack.us/a/img832/9391/vlcsnap2012093020h28m37.png&lt;/a&gt;\n\nNFO:\n\nFormat : AVI\nFormat/Info : Audio Video Interleave\nFile size : 698 MiB\nDuration : 1h 24mn\nOverall bit rate : 1 151 Kbps\nWriting application : VirtualDubMod 1.5.10.2 (build 2540/release)\nWriting library : VirtualDubMod build 2540/release\n\nVideo\nID : 0\nFormat : MPEG-4 Visual\nFormat profile : Advanced Simple@L5\nFormat settings, BVOP : 2\nFormat settings, QPel : No\nFormat settings, GMC : No warppoints\nFormat settings, Matrix : Default (MPEG)\nCodec ID : XVID\nCodec ID/Hint : XviD\nDuration : 1h 24mn\nBit rate : 1 014 Kbps\nWidth : 640 pixels\nHeight : 352 pixels\nDisplay aspect ratio : 16:9\nFrame rate : 25.000 fps\nColor space : YUV\nChroma subsampling : 4:2:0\nBit depth : 8 bits\nScan type : Progressive\nCompression mode : Lossy\nBits/(Pixel*Frame) : 0.180\nStream size : 615 MiB (88%)\nWriting library : XviD 1.2.1 (UTC 2008-12-04)\n\nAudio\nID : 1\nFormat : MPEG Audio\nFormat version : Version 1\nFormat profile : Layer 3\nMode : Joint stereo\nMode extension : MS Stereo\nCodec ID : 55\nCodec ID/Hint : MP3\nDuration : 1h 24mn\nBit rate mode : Constant\nBit rate : 128 Kbps\nChannel(s) : 2 channels\nSampling rate : 48.0 KHz\nCompression mode : Lossy\nDelay relative to video : 72ms\nStream size : 77.6 MiB (11%)\nAlignment : Aligned on interleaves\nInterleave, duration : 40 ms (1.00 video frame)\nInterleave, preload duration : 504 ms\nWriting library : LAME3.99r\nEncoding settings : -m j -V 4 -q 2 -lowpass 17 -b 128","torrent":{"xt":"urn:btih:6f8fcea2072ee0981c431572137f202122284358","amp;dn":"Dead+Before+Dawn+2012+HDTV+XViD-PSiG.avi","amp;tr":["udp%3A%2F%2Ftracker.openbittorrent.com%3A80","udp%3A%2F%2Fopen.demonii.com%3A1337","udp%3A%2F%2Ftracker.coppersurfer.tk%3A6969","udp%3A%2F%2Fexodus.desync.com%3A6969"],"infoHash":"6f8fcea2072ee0981c431572137f202122284358","infoHashBuffer":{"type":"Buffer","data":[111,143,206,162,7,46,224,152,28,67,21,114,19,127,32,33,34,40,67,88]},"announce":[],"urlList":[]}}